# xmcd
#
# Track frame offsets: 
#        182
#        21097
#        43442
#        60685
#        77915
#        104972
#        122930
#        136667
#        169170
#        191162
#
# Disc length: 2738 seconds
#
# Revision: 0
# Processed by: cddbd v1.5.1PL0 Copyright (c) Steve Scherf et al.
# Submitted via: ExactAudioCopy v0.95a5
#
DISCID=960ab00a
DTITLE=Magic Slim and Nick Holt - You Can't Lose What You Ain't Never Ha
DTITLE=d
DYEAR=1900
DGENRE=Blues
TTITLE0=Bad Boy
TTITLE1=You Can't Lose What Yuo Ain't Had
TTITLE2=If It's Too Late
TTITLE3=Before You Accuse Me
TTITLE4=Driftin' Blues
TTITLE5=Everybody In Town
TTITLE6=How Much More
TTITLE7=How Unlucky Can One Man Be
TTITLE8=That Will Never Do
TTITLE9=Dust My Brown
EXTD=
EXTT0=
EXTT1=
EXTT2=
EXTT3=
EXTT4=
EXTT5=
EXTT6=
EXTT7=
EXTT8=
EXTT9=
PLAYORDER=
